<svg width="25" height="23" viewBox="0 0 25 23" fill="none" xmlns="http://www.w3.org/2000/svg">
<path d="M24.6831 3.015C24.435 2.73343 24.0779 2.57143 23.7013 2.57143H5.75454L5.50129 1.07486C5.39739 0.455143 4.85584 0 4.22077 0H1.2987C0.580519 0 0 0.574714 0 1.28571C0 1.99671 0.580519 2.57143 1.2987 2.57143H3.12077L5.53636 16.9251C5.54674 16.983 5.57661 17.0306 5.5948 17.0846C5.61558 17.1527 5.63246 17.217 5.66493 17.2787C5.70648 17.3636 5.76233 17.4356 5.82077 17.5089C5.86103 17.559 5.89739 17.6091 5.94415 17.6529C6.01947 17.7223 6.10648 17.7711 6.1948 17.82C6.24415 17.847 6.287 17.883 6.34025 17.9036C6.4909 17.964 6.64934 18 6.81687 18H21.1039C21.822 18 22.4026 17.4253 22.4026 16.7143C22.4026 16.0033 21.822 15.4286 21.1039 15.4286H7.91817L7.70259 14.1429H22.4026C23.0493 14.1429 23.5974 13.6723 23.6883 13.0397L24.987 4.03971C25.0402 3.66943 24.9285 3.29529 24.6831 3.015ZM22.2039 5.14286L21.8337 7.71429H17.2078V5.14286H22.2039ZM15.9091 5.14286V7.71429H12.013V5.14286H15.9091ZM15.9091 9V11.5714H12.013V9H15.9091ZM10.7143 5.14286V7.71429H6.81817C6.74934 7.71429 6.687 7.73357 6.62596 7.75286L6.187 5.14286H10.7143ZM6.83635 9H10.7143V11.5714H7.26882L6.83635 9ZM17.2078 11.5714V9H21.6467L21.2766 11.5714H17.2078Z" fill="white"/>
<path d="M9 23C10.1046 23 11 22.1046 11 21C11 19.8954 10.1046 19 9 19C7.89543 19 7 19.8954 7 21C7 22.1046 7.89543 23 9 23Z" fill="white"/>
<path d="M20 23C21.1046 23 22 22.1046 22 21C22 19.8954 21.1046 19 20 19C18.8954 19 18 19.8954 18 21C18 22.1046 18.8954 23 20 23Z" fill="white"/>
</svg>
