<svg width="18" height="18" viewBox="0 0 18 18" fill="none" xmlns="http://www.w3.org/2000/svg">
<path d="M16.7946 4.4848C15.9911 3.49718 14.8996 2.71698 13.5201 2.14443C12.1407 1.57188 10.634 1.28564 9 1.28564C7.36608 1.28564 5.85934 1.57188 4.47989 2.14443C3.10044 2.71698 2.00896 3.49704 1.20537 4.4848C0.401743 5.4725 0 6.54889 0 7.71408C0 8.71849 0.302917 9.6596 0.908996 10.5368C1.51508 11.414 2.34365 12.1507 3.39509 12.7467C3.32135 13.0144 3.23431 13.2688 3.13383 13.5101C3.03339 13.7511 2.943 13.9487 2.86265 14.1028C2.78222 14.2567 2.67351 14.4276 2.53613 14.6149C2.39895 14.8025 2.29516 14.9348 2.22484 15.0119C2.15458 15.0889 2.03908 15.2159 1.87826 15.3935C1.71765 15.5709 1.6138 15.6866 1.56697 15.7402C1.56018 15.7436 1.53344 15.7735 1.48658 15.8307C1.43975 15.8875 1.41625 15.9158 1.41625 15.9158L1.35598 16.0062C1.32245 16.0562 1.3074 16.0881 1.3107 16.1013C1.31408 16.1148 1.3074 16.1483 1.29065 16.2017C1.27387 16.2554 1.27559 16.2956 1.29565 16.3224V16.3325C1.32245 16.4463 1.37597 16.5384 1.45632 16.6087C1.53668 16.6788 1.62724 16.7139 1.72757 16.7139H1.77785C2.21323 16.6602 2.59488 16.5868 2.92295 16.493C4.67747 16.0444 6.21771 15.2341 7.54354 14.0622C8.04572 14.1157 8.53124 14.1425 8.99993 14.1425C10.6338 14.1425 12.1407 13.8563 13.5201 13.2835C14.8995 12.7109 15.991 11.931 16.7945 10.9434C17.5982 9.95573 18 8.87923 18 7.71404C18 6.54903 17.5983 5.4725 16.7946 4.4848ZM15.6646 10.2755C14.9646 11.0656 14.0204 11.6935 12.8318 12.1588C11.6432 12.624 10.3658 12.8569 8.99975 12.8569C8.59133 12.8569 8.15609 12.8301 7.69405 12.7764L7.12149 12.7163L6.68957 13.0981C5.86603 13.8214 4.94517 14.3939 3.92733 14.8158C4.23531 14.2735 4.46969 13.6975 4.63047 13.0883L4.90165 12.1238L4.02781 11.6218C3.15726 11.126 2.48268 10.5384 2.00379 9.8587C1.52496 9.17916 1.28565 8.46416 1.28565 7.71422C1.28565 6.79678 1.63554 5.94306 2.33527 5.15287C3.03522 4.36276 3.97929 3.73494 5.16795 3.26955C6.3566 2.80413 7.63381 2.57123 8.99996 2.57123C10.366 2.57123 11.6432 2.80402 12.8318 3.26941C14.0203 3.73483 14.9645 4.36262 15.6645 5.15273C16.3643 5.94292 16.7141 6.79668 16.7141 7.71404C16.7141 8.63141 16.3643 9.48535 15.6646 10.2755Z" fill="#CC3131"/>
</svg>
