<svg width="21" height="21" viewBox="0 0 21 21" fill="none" xmlns="http://www.w3.org/2000/svg">
<path d="M17.8001 4.76289H11.1495V3.7852C11.9054 3.51709 12.4485 2.79517 12.4485 1.94845C12.4485 0.874076 11.5744 0 10.5 0C9.42562 0 8.55155 0.874076 8.55155 1.94845C8.55155 2.79517 9.09456 3.51709 9.85052 3.7852V4.76289H3.19992L0 11.7798V11.9209C0 13.9156 1.6228 15.5384 3.61754 15.5384C5.61228 15.5384 7.23508 13.9156 7.23508 11.9209V11.7798L4.62758 6.06186H9.85052V17.1031H6.72256L5.42359 21H15.5764L14.2774 17.1031H11.1495V6.06186H16.3724L13.7649 11.7798V11.9209C13.7649 13.9156 15.3877 15.5384 17.3824 15.5384C19.3772 15.5384 21 13.9156 21 11.9209V11.7797L17.8001 4.76289ZM10.5 1.29897C10.8581 1.29897 11.1495 1.59033 11.1495 1.94845C11.1495 2.30658 10.8581 2.59794 10.5 2.59794C10.1419 2.59794 9.85052 2.30658 9.85052 1.94845C9.85052 1.59033 10.1419 1.29897 10.5 1.29897ZM3.61754 14.2394C2.56447 14.2394 1.67368 13.5336 1.39211 12.5703H5.84298C5.56141 13.5336 4.67062 14.2394 3.61754 14.2394ZM5.57561 11.2714H1.65952L3.61759 6.97767L5.57561 11.2714ZM13.7742 19.701H7.22582L7.65881 18.4021H13.3411L13.7742 19.701ZM17.3825 6.97767L19.3405 11.2714H15.4244L17.3825 6.97767ZM17.3825 14.2394C16.3294 14.2394 15.4386 13.5336 15.157 12.5703H19.6079C19.3263 13.5336 18.4355 14.2394 17.3825 14.2394Z" fill="#949494"/>
</svg>
