<svg width="24" height="16" viewBox="0 0 24 16" fill="none" xmlns="http://www.w3.org/2000/svg">
<path d="M11.3354 3.54579L9.91482 6.97382C9.86666 7.09005 9.75729 7.16993 9.63129 7.18092L2.36514 7.81537C2.18686 7.83092 2.05157 7.9816 2.05623 8.15929L2.204 13.8266C2.20808 13.9825 2.31933 14.1151 2.47286 14.1473L11.027 15.9351C11.2361 15.9788 11.4487 16.0005 11.6612 16L11.6614 14.3192V3.60989C11.6613 3.14206 11.5146 3.11322 11.3354 3.54579ZM10.3407 14.1147L7.12945 13.6009V11.9284H10.3407V14.1147ZM8.93654 6.36625L0.373254 7.22605C0.111646 7.25231 -0.0789809 6.98523 0.03247 6.74863L2.31266 1.90565C2.35906 1.80711 2.45055 1.73689 2.55823 1.71725L11.9674 3.8945e-05L9.21203 6.16803C9.1627 6.27842 9.05756 6.35409 8.93654 6.36625ZM21.6348 7.81537L14.3687 7.18096C14.2427 7.16997 14.1333 7.09009 14.0852 6.97385L12.6646 3.54583C12.4854 3.11322 12.3387 3.14206 12.3387 3.60989V14.3191L12.3388 16C12.5513 16.0005 12.7639 15.9788 12.9731 15.9351L21.5272 14.1472C21.6807 14.1151 21.792 13.9824 21.796 13.8266L21.9438 8.15929C21.9485 7.98157 21.8131 7.83092 21.6348 7.81537ZM18.6446 10.8425L18.2433 10.8535L18.2352 13.3632C18.2348 13.4738 18.1218 13.5795 17.9812 13.5995L17.3236 13.6935C17.1733 13.715 17.0504 13.6385 17.0507 13.5224L17.0568 10.8863L16.5978 10.8989C16.3746 10.905 16.2334 10.7272 16.347 10.58L17.4386 9.16657C17.542 9.03261 17.7958 9.04496 17.8955 9.18609L18.8538 10.5431C18.9446 10.6718 18.8297 10.8374 18.6446 10.8425ZM23.6267 7.22605L15.0634 6.36625C14.9424 6.35409 14.8372 6.27842 14.7879 6.16799L12.0326 0L21.4418 1.71721C21.5494 1.73685 21.6409 1.80707 21.6874 1.90561L23.9676 6.74859C24.079 6.98523 23.8883 7.25231 23.6267 7.22605Z" fill="#ED1C24"/>
</svg>
