<svg width="22" height="22" viewBox="0 0 22 22" fill="none" xmlns="http://www.w3.org/2000/svg">
<path fill-rule="evenodd" clip-rule="evenodd" d="M17.6291 6.4251C17.6956 6.40419 17.7831 6.44602 17.8707 6.56106C17.8707 6.56106 17.8707 6.56106 21.8273 10.4167C22.0584 10.6467 22.0584 10.9954 21.8273 11.1662C21.8273 11.1662 21.8273 11.1662 17.8707 15.081C17.7831 15.1961 17.6956 15.224 17.6291 15.1891C17.5625 15.1542 17.5205 15.0531 17.5205 14.9067V6.6761C17.5205 6.53317 17.5625 6.44602 17.6291 6.4251Z" fill="#ED1C24"/>
<path fill-rule="evenodd" clip-rule="evenodd" d="M10.8604 0H11.1405L11.4101 0.111555C11.4101 0.111555 11.4101 0.111555 15.4823 4.14146C15.6574 4.37154 15.5978 4.54584 15.3072 4.54584C15.3072 4.54584 15.3072 4.54584 13.6195 4.54584C13.3289 4.54584 13.0978 4.77593 13.0978 5.06527C13.0978 5.06527 13.0978 5.06527 13.0978 8.05633C13.0978 8.34567 12.8632 8.57575 12.5131 8.57575C12.5131 8.57575 12.5131 8.57575 9.54733 8.57575C9.25671 8.57575 9.02212 8.34567 9.02212 8.05633C9.02212 8.05633 9.02212 8.05633 9.02212 5.06527C9.02212 4.77593 8.79102 4.54584 8.4969 4.54584H6.69365C6.40303 4.54584 6.34351 4.37154 6.51858 4.14146C6.51858 4.14146 6.51858 4.14146 10.5943 0.111555L10.8604 0Z" fill="#ED1C24"/>
<path fill-rule="evenodd" clip-rule="evenodd" d="M4.4801 6.33777C4.55363 6.37263 4.59915 6.47373 4.59915 6.62014V15.0216C4.59915 15.168 4.55363 15.2552 4.4801 15.283C4.41007 15.3109 4.30853 15.283 4.18948 15.1959C4.18948 15.1959 4.18948 15.1959 0.173322 11.166C-0.0577738 10.9952 -0.0577738 10.6466 0.173322 10.4165C0.173322 10.4165 0.173322 10.4165 4.18948 6.44584C4.30853 6.3308 4.41007 6.30291 4.4801 6.33777Z" fill="#ED1C24"/>
<path fill-rule="evenodd" clip-rule="evenodd" d="M9.54738 12.9507C9.54738 12.9507 9.54738 12.9507 12.5131 12.9507C12.8632 12.9507 13.0978 13.1808 13.0978 13.4701C13.0978 13.4701 13.0978 13.4701 13.0978 16.6355C13.0978 16.9806 13.3289 17.2107 13.6196 17.2107H15.1917C15.4823 17.2107 15.5979 17.3815 15.3668 17.5558C15.3668 17.5558 15.3668 17.5558 11.4101 21.5264C11.2911 21.6415 11.1475 21.7007 11.0005 21.7007C10.8569 21.7007 10.7099 21.6415 10.5943 21.5264C10.5943 21.5264 10.5943 21.5264 6.63767 17.5558C6.40308 17.3815 6.51862 17.2107 6.80924 17.2107C6.80924 17.2107 6.80924 17.2107 8.49694 17.2107C8.79106 17.2107 9.02216 16.9806 9.02216 16.6355C9.02216 16.6355 9.02216 16.6355 9.02216 13.4701C9.02216 13.1808 9.25675 12.9507 9.54738 12.9507Z" fill="#ED1C24"/>
</svg>
