<svg width="22" height="22" viewBox="0 0 22 22" fill="none" xmlns="http://www.w3.org/2000/svg">
<path d="M21.9698 7.93807C21.8976 7.71681 21.7079 7.55877 21.4777 7.52265L14.6143 6.54732L11.5257 0.338655C11.4219 0.130946 11.2096 0 10.9794 0C10.7491 0 10.5369 0.130947 10.433 0.34317L7.38511 6.5699L0.521706 7.59038C0.291421 7.6265 0.101774 7.78454 0.0295278 8.0058C-0.0427186 8.22705 0.0204969 8.47088 0.187567 8.62892L5.16805 13.4559L4.01662 20.2922C3.97598 20.5225 4.07081 20.7528 4.26045 20.8882C4.36431 20.965 4.49074 21.0056 4.61717 21.0056C4.71651 21.0056 4.81133 20.983 4.90164 20.9334L11.029 17.6868L17.1745 20.8973C17.2648 20.9424 17.3596 20.965 17.4544 20.965C17.7886 20.965 18.064 20.6895 18.064 20.3554C18.064 20.3057 18.0595 20.2606 18.046 20.2154L16.8584 13.4198L21.8073 8.56571C21.9834 8.40315 22.0421 8.15932 21.9698 7.93807ZM15.7837 12.7741C15.6393 12.914 15.576 13.1172 15.6122 13.3159L16.6462 19.2446L11.309 16.4586C11.1329 16.3638 10.9207 16.3683 10.74 16.4586L5.42091 19.2762L6.41881 13.3385C6.45042 13.1398 6.38721 12.9411 6.24271 12.8011L1.92599 8.61086L7.8818 7.72584C8.08048 7.69423 8.25206 7.57232 8.33786 7.3917L10.9839 1.98677L13.666 7.37816C13.7563 7.55877 13.9279 7.68069 14.1266 7.7123L20.0869 8.56119L15.7837 12.7741Z" fill="#949494"/>
</svg>
