<svg width="13" height="13" viewBox="0 0 13 13" fill="none" xmlns="http://www.w3.org/2000/svg">
<g clip-path="url(#clip0)">
<path d="M10.8101 5.71698C10.8241 4.06919 9.42071 2.55861 7.68163 2.34972C7.64705 2.34561 7.60936 2.33937 7.56948 2.33275C7.48338 2.31849 7.39435 2.30383 7.30453 2.30383C6.94811 2.30383 6.85283 2.5542 6.82774 2.70353C6.80334 2.84871 6.82662 2.97063 6.89677 3.06607C7.01481 3.22657 7.22249 3.25506 7.38931 3.27791C7.4382 3.28467 7.48434 3.29094 7.52296 3.29962C9.08545 3.64876 9.61157 4.19766 9.86869 5.74686C9.87497 5.78471 9.8778 5.83137 9.88081 5.88083C9.89202 6.06603 9.9154 6.4513 10.3296 6.4513H10.3297C10.3642 6.4513 10.4012 6.44834 10.4398 6.44245C10.8255 6.38383 10.8134 6.03165 10.8076 5.86243C10.806 5.81477 10.8044 5.76969 10.8085 5.73972C10.8095 5.73216 10.8101 5.72456 10.8101 5.71698Z" fill="white"/>
<path d="M7.20331 1.74489C7.24958 1.74823 7.29341 1.75142 7.32989 1.75702C9.89565 2.1516 11.0756 3.36724 11.4026 5.95306C11.4081 5.99703 11.409 6.05063 11.4099 6.1074C11.4132 6.30942 11.4199 6.72971 11.8713 6.73841L11.8853 6.73854C12.0268 6.73854 12.1394 6.69586 12.22 6.61158C12.3605 6.46462 12.3507 6.2463 12.3428 6.07083C12.3408 6.02778 12.339 5.98724 12.3394 5.95174C12.3721 3.30711 10.0829 0.908967 7.4406 0.819805C7.42964 0.819439 7.41919 0.820033 7.40862 0.821517C7.40344 0.82227 7.3938 0.823229 7.37732 0.823229C7.35098 0.823229 7.31857 0.820946 7.28419 0.818618C7.24262 0.815764 7.19551 0.8125 7.14775 0.8125C6.72696 0.8125 6.64697 1.11158 6.63675 1.28986C6.61314 1.70191 7.01175 1.7309 7.20331 1.74489Z" fill="white"/>
<path d="M11.2791 9.29522C11.2246 9.25356 11.1682 9.21044 11.1154 9.16789C10.8352 8.94245 10.5372 8.73466 10.249 8.53369C10.1892 8.49203 10.1293 8.45032 10.0697 8.4085C9.70053 8.14916 9.3686 8.02314 9.055 8.02314C8.63261 8.02314 8.26437 8.25652 7.96042 8.71671C7.82577 8.92074 7.66239 9.01993 7.46106 9.01993C7.34202 9.01993 7.20672 8.98596 7.05903 8.91892C5.8673 8.37851 5.01633 7.54993 4.52972 6.4562C4.29449 5.92757 4.37076 5.58203 4.78475 5.3008C5.01984 5.14124 5.45744 4.84419 5.42644 4.27537C5.39133 3.62941 3.96605 1.68575 3.36552 1.46501C3.11127 1.37151 2.84413 1.37065 2.57009 1.46284C1.87971 1.69493 1.38429 2.1025 1.13726 2.64143C0.898532 3.16218 0.909307 3.77363 1.16844 4.40968C1.91753 6.24867 2.9707 7.85205 4.29883 9.17515C5.59883 10.4704 7.19663 11.5313 9.04781 12.3284C9.21468 12.4002 9.38969 12.4394 9.51748 12.4679C9.56103 12.4777 9.59863 12.4861 9.62605 12.4936C9.64111 12.4977 9.65663 12.4999 9.67222 12.5L9.68686 12.5001C9.6869 12.5001 9.68686 12.5001 9.68693 12.5001C10.5576 12.5001 11.6031 11.7045 11.9241 10.7974C12.2054 10.0032 11.6918 9.61064 11.2791 9.29522Z" fill="white"/>
<path d="M7.5886 3.84565C7.43953 3.84942 7.12929 3.85711 7.02045 4.17309C6.96953 4.32073 6.97562 4.44893 7.0386 4.55411C7.131 4.70845 7.30807 4.75575 7.46912 4.7817C8.05317 4.87543 8.35312 5.19838 8.41311 5.798C8.44098 6.07759 8.62926 6.27283 8.871 6.27283H8.87104C8.88889 6.27283 8.90715 6.27178 8.92535 6.26957C9.21607 6.23498 9.35703 6.02137 9.34429 5.63475C9.34895 5.23123 9.13778 4.77314 8.77861 4.40825C8.41818 4.04224 7.98375 3.83611 7.5886 3.84565Z" fill="white"/>
</g>
<defs>
<clipPath id="clip0">
<rect width="11.6875" height="11.6875" fill="white" transform="translate(0.8125 0.8125)"/>
</clipPath>
</defs>
</svg>
